<mxfile host="app.diagrams.net" agent="Mozilla/5.0 (Windows NT 10.0; Win64; x64) AppleWebKit/537.36 (KHTML, like Gecko) Chrome/138.0.0.0 Safari/537.36" version="28.0.7">
  <diagram name="Page-1" id="zWdtuW_SkndJjkcT9o-N">
    <mxGraphModel grid="0" page="1" gridSize="10" guides="1" tooltips="1" connect="0" arrows="1" fold="1" pageScale="1" pageWidth="827" pageHeight="1169" background="none" math="0" shadow="1">
      <root>
        <mxCell id="0" />
        <mxCell id="1" parent="0" />
        <mxCell id="wcI3-6qMLWqPk6CU8tgB-1" value="" style="image;aspect=fixed;html=1;points=[];align=center;fontSize=12;image=img/lib/azure2/databases/Azure_Cosmos_DB.svg;labelBackgroundColor=none;sketch=1;curveFitting=1;jiggle=2;rounded=0;" vertex="1" parent="1">
          <mxGeometry x="170" y="144" width="64" height="64" as="geometry" />
        </mxCell>
        <mxCell id="wcI3-6qMLWqPk6CU8tgB-2" value="" style="image;aspect=fixed;html=1;points=[];align=center;fontSize=12;image=img/lib/azure2/compute/Function_Apps.svg;labelBackgroundColor=none;sketch=1;curveFitting=1;jiggle=2;rounded=0;" vertex="1" parent="1">
          <mxGeometry x="422" y="300" width="68" height="60" as="geometry" />
        </mxCell>
        <mxCell id="wcI3-6qMLWqPk6CU8tgB-3" value="" style="image;aspect=fixed;html=1;points=[];align=center;fontSize=12;image=img/lib/azure2/databases/Data_Factory.svg;labelBackgroundColor=none;sketch=1;curveFitting=1;jiggle=2;rounded=0;" vertex="1" parent="1">
          <mxGeometry x="410" y="140" width="68" height="68" as="geometry" />
        </mxCell>
        <mxCell id="wcI3-6qMLWqPk6CU8tgB-4" value="" style="image;aspect=fixed;html=1;points=[];align=center;fontSize=12;image=img/lib/azure2/storage/Storage_Accounts_Classic.svg;labelBackgroundColor=none;sketch=1;curveFitting=1;jiggle=2;rounded=0;" vertex="1" parent="1">
          <mxGeometry x="620" y="150" width="65" height="52" as="geometry" />
        </mxCell>
        <mxCell id="wcI3-6qMLWqPk6CU8tgB-8" value="" style="endArrow=classic;html=1;rounded=0;hachureGap=4;fontFamily=Architects Daughter;fontSource=https%3A%2F%2Ffonts.googleapis.com%2Fcss%3Ffamily%3DArchitects%2BDaughter;" edge="1" parent="1">
          <mxGeometry width="50" height="50" relative="1" as="geometry">
            <mxPoint x="252" y="176" as="sourcePoint" />
            <mxPoint x="404" y="179" as="targetPoint" />
            <Array as="points" />
          </mxGeometry>
        </mxCell>
        <mxCell id="wcI3-6qMLWqPk6CU8tgB-9" value="" style="endArrow=classic;html=1;rounded=0;hachureGap=4;fontFamily=Architects Daughter;fontSource=https%3A%2F%2Ffonts.googleapis.com%2Fcss%3Ffamily%3DArchitects%2BDaughter;" edge="1" parent="1">
          <mxGeometry width="50" height="50" relative="1" as="geometry">
            <mxPoint x="490" y="180" as="sourcePoint" />
            <mxPoint x="615" y="183" as="targetPoint" />
            <Array as="points" />
          </mxGeometry>
        </mxCell>
        <mxCell id="wcI3-6qMLWqPk6CU8tgB-10" value="" style="endArrow=classic;html=1;rounded=0;hachureGap=4;fontFamily=Architects Daughter;fontSource=https%3A%2F%2Ffonts.googleapis.com%2Fcss%3Ffamily%3DArchitects%2BDaughter;" edge="1" parent="1">
          <mxGeometry width="50" height="50" relative="1" as="geometry">
            <mxPoint x="229" y="213" as="sourcePoint" />
            <mxPoint x="410" y="315" as="targetPoint" />
            <Array as="points" />
          </mxGeometry>
        </mxCell>
        <mxCell id="wcI3-6qMLWqPk6CU8tgB-11" value="" style="endArrow=classic;html=1;rounded=0;hachureGap=4;fontFamily=Architects Daughter;fontSource=https%3A%2F%2Ffonts.googleapis.com%2Fcss%3Ffamily%3DArchitects%2BDaughter;" edge="1" parent="1">
          <mxGeometry width="50" height="50" relative="1" as="geometry">
            <mxPoint x="506" y="304" as="sourcePoint" />
            <mxPoint x="634" y="218" as="targetPoint" />
            <Array as="points" />
          </mxGeometry>
        </mxCell>
        <mxCell id="wcI3-6qMLWqPk6CU8tgB-12" value="Initial Migration" style="text;strokeColor=none;fillColor=none;html=1;fontSize=24;fontStyle=1;verticalAlign=middle;align=center;fontFamily=Architects Daughter;fontSource=https%3A%2F%2Ffonts.googleapis.com%2Fcss%3Ffamily%3DArchitects%2BDaughter;" vertex="1" parent="1">
          <mxGeometry x="387" y="113" width="87" height="13" as="geometry" />
        </mxCell>
        <mxCell id="wcI3-6qMLWqPk6CU8tgB-13" value="Daily migration" style="text;strokeColor=none;fillColor=none;html=1;fontSize=24;fontStyle=1;verticalAlign=middle;align=center;fontFamily=Architects Daughter;fontSource=https%3A%2F%2Ffonts.googleapis.com%2Fcss%3Ffamily%3DArchitects%2BDaughter;" vertex="1" parent="1">
          <mxGeometry x="390" y="386" width="87" height="13" as="geometry" />
        </mxCell>
        <mxCell id="wcI3-6qMLWqPk6CU8tgB-14" value="&lt;ul&gt;&lt;li&gt;&lt;font&gt;Service Managed Identity&lt;/font&gt;&lt;/li&gt;&lt;li&gt;&lt;font&gt;Grant SBDC&amp;nbsp;&lt;/font&gt;&lt;/li&gt;&lt;/ul&gt;" style="text;strokeColor=none;fillColor=none;html=1;fontSize=15;fontStyle=1;verticalAlign=middle;align=left;fontFamily=Architects Daughter;fontSource=https%3A%2F%2Ffonts.googleapis.com%2Fcss%3Ffamily%3DArchitects%2BDaughter;" vertex="1" parent="1">
          <mxGeometry x="495" y="317.5" width="102" height="25" as="geometry" />
        </mxCell>
        <mxCell id="wcI3-6qMLWqPk6CU8tgB-15" value="&lt;ul&gt;&lt;li&gt;Create Managed Identity&lt;/li&gt;&lt;li&gt;Grant&amp;nbsp;Cosmos DB Built-in Data Reader&amp;nbsp;&lt;/li&gt;&lt;/ul&gt;" style="text;strokeColor=none;fillColor=none;html=1;fontSize=15;fontStyle=1;verticalAlign=middle;align=left;fontFamily=Architects Daughter;fontSource=https%3A%2F%2Ffonts.googleapis.com%2Fcss%3Ffamily%3DArchitects%2BDaughter;" vertex="1" parent="1">
          <mxGeometry x="107" y="313" width="100" height="40" as="geometry" />
        </mxCell>
        <mxCell id="wcI3-6qMLWqPk6CU8tgB-16" style="edgeStyle=none;rounded=0;sketch=1;hachureGap=4;jiggle=2;curveFitting=1;orthogonalLoop=1;jettySize=auto;html=1;fontFamily=Architects Daughter;fontSource=https%3A%2F%2Ffonts.googleapis.com%2Fcss%3Ffamily%3DArchitects%2BDaughter;" edge="1" parent="1" source="wcI3-6qMLWqPk6CU8tgB-15" target="wcI3-6qMLWqPk6CU8tgB-15">
          <mxGeometry relative="1" as="geometry" />
        </mxCell>
        <mxCell id="wcI3-6qMLWqPk6CU8tgB-17" value="&lt;span style=&quot;color: rgba(0, 0, 0, 0); font-family: monospace; font-size: 0px; text-align: start;&quot;&gt;%3CmxGraphModel%3E%3Croot%3E%3CmxCell%20id%3D%220%22%2F%3E%3CmxCell%20id%3D%221%22%20parent%3D%220%22%2F%3E%3CmxCell%20id%3D%222%22%20value%3D%22%26lt%3Bul%26gt%3B%26lt%3Bli%26gt%3BCreate%20Managed%20Identity%26lt%3B%2Fli%26gt%3B%26lt%3Bli%26gt%3BGrant%26amp%3Bnbsp%3BCosmos%20DB%20Built-in%20Data%20Reader%26amp%3Bnbsp%3B%26lt%3B%2Fli%26gt%3B%26lt%3B%2Ful%26gt%3B%22%20style%3D%22text%3BstrokeColor%3Dnone%3BfillColor%3Dnone%3Bhtml%3D1%3BfontSize%3D15%3BfontStyle%3D1%3BverticalAlign%3Dmiddle%3Balign%3Dleft%3BfontFamily%3DArchitects%20Daughter%3BfontSource%3Dhttps%253A%252F%252Ffonts.googleapis.com%252Fcss%253Ffamily%253DArchitects%252BDaughter%3B%22%20vertex%3D%221%22%20parent%3D%221%22%3E%3CmxGeometry%20x%3D%22107%22%20y%3D%22313%22%20width%3D%22100%22%20height%3D%2240%22%20as%3D%22geometry%22%2F%3E%3C%2FmxCell%3E%3C%2Froot%3E%3C%2FmxGraphModel%3E&lt;/span&gt;" style="text;html=1;align=center;verticalAlign=middle;resizable=0;points=[];autosize=1;strokeColor=none;fillColor=none;fontFamily=Architects Daughter;fontSource=https%3A%2F%2Ffonts.googleapis.com%2Fcss%3Ffamily%3DArchitects%2BDaughter;" vertex="1" parent="1">
          <mxGeometry x="284" y="138" width="18" height="26" as="geometry" />
        </mxCell>
        <mxCell id="wcI3-6qMLWqPk6CU8tgB-18" value="&lt;ul&gt;&lt;li&gt;Create Linked Service&lt;/li&gt;&lt;/ul&gt;" style="text;strokeColor=none;fillColor=none;html=1;fontSize=15;fontStyle=1;verticalAlign=middle;align=left;fontFamily=Architects Daughter;fontSource=https%3A%2F%2Ffonts.googleapis.com%2Fcss%3Ffamily%3DArchitects%2BDaughter;" vertex="1" parent="1">
          <mxGeometry x="202" y="140" width="100" height="40" as="geometry" />
        </mxCell>
        <mxCell id="wcI3-6qMLWqPk6CU8tgB-20" value="&lt;ul&gt;&lt;li&gt;Create Linked Service&lt;/li&gt;&lt;/ul&gt;" style="text;strokeColor=none;fillColor=none;html=1;fontSize=15;fontStyle=1;verticalAlign=middle;align=left;fontFamily=Architects Daughter;fontSource=https%3A%2F%2Ffonts.googleapis.com%2Fcss%3Ffamily%3DArchitects%2BDaughter;" vertex="1" parent="1">
          <mxGeometry x="422" y="193" width="100" height="40" as="geometry" />
        </mxCell>
      </root>
    </mxGraphModel>
  </diagram>
</mxfile>
